<?xml version="1.0" encoding="UTF-8" standalone="no"?>
<svg
   xmlns:dc="http://purl.org/dc/elements/1.1/"
   xmlns:cc="http://creativecommons.org/ns#"
   xmlns:rdf="http://www.w3.org/1999/02/22-rdf-syntax-ns#"
   xmlns:svg="http://www.w3.org/2000/svg"
   xmlns="http://www.w3.org/2000/svg"
   xmlns:sodipodi="http://sodipodi.sourceforge.net/DTD/sodipodi-0.dtd"
   xmlns:inkscape="http://www.inkscape.org/namespaces/inkscape"
   width="100mm"
   height="100mm"
   viewBox="0 0 100 100"
   version="1.1"
   id="svg8"
   sodipodi:docname="white.svg"
   inkscape:version="1.0.2 (e86c870879, 2021-01-15, custom)"
   inkscape:export-filename="D:\Projects\Dolly\icon.png"
   inkscape:export-xdpi="32.512016"
   inkscape:export-ydpi="32.512016">
  <defs
     id="defs2" />
  <sodipodi:namedview
     id="base"
     pagecolor="#ffffff"
     bordercolor="#666666"
     borderopacity="1.0"
     inkscape:pageopacity="0.0"
     inkscape:pageshadow="2"
     inkscape:zoom="1.4"
     inkscape:cx="277.90054"
     inkscape:cy="157.30359"
     inkscape:document-units="mm"
     inkscape:current-layer="layer1"
     inkscape:document-rotation="0"
     showgrid="false"
     inkscape:window-width="2560"
     inkscape:window-height="1369"
     inkscape:window-x="-8"
     inkscape:window-y="-8"
     inkscape:window-maximized="1" />
  <metadata
     id="metadata5">
    <rdf:RDF>
      <cc:Work
         rdf:about="">
        <dc:format>image/svg+xml</dc:format>
        <dc:type
           rdf:resource="http://purl.org/dc/dcmitype/StillImage" />
        <dc:title></dc:title>
      </cc:Work>
    </rdf:RDF>
  </metadata>
  <g
     inkscape:label="Layer 1"
     inkscape:groupmode="layer"
     id="layer1">
    <circle
       id="path3031"
       style="fill:#000000;stroke:#000000;stroke-width:0.264583"
       cx="-40.090427"
       cy="7.6171818"
       r="0" />
    <circle
       id="path3033"
       style="fill:#000000;stroke:#000000;stroke-width:0.264583"
       cx="-39.823158"
       cy="33.275055"
       r="0" />
    <circle
       id="path3031-7"
       style="fill:#000000;stroke:#000000;stroke-width:0.264583"
       cx="-164.88779"
       cy="6.9330935"
       r="0" />
    <circle
       id="path3033-9"
       style="fill:#000000;stroke:#000000;stroke-width:0.264583"
       cx="-164.62051"
       cy="32.590965"
       r="0" />
    <ellipse
       style="fill:#ffffff;stroke:none;stroke-width:0;stroke-linecap:round;stroke-linejoin:round;stroke-miterlimit:4;stroke-dasharray:none;stroke-opacity:1"
       id="path3708"
       cx="50.16177"
       cy="49.016441"
       rx="43.169212"
       ry="25.959894" />
    <path
       id="path844-3"
       style="fill:#ffffff;stroke:#000000;stroke-width:2.01822;stroke-miterlimit:4;stroke-dasharray:none"
       d="M 49.786148,1.0093398 A 16.870475,16.979705 0.00645558 0 0 37.110962,6.9237135 16.870475,16.979705 0.00645558 0 0 34.73889,6.4088699 16.870475,16.979705 0.00645558 0 0 15.674809,20.847272 a 16.870475,16.979705 0.00645558 0 0 -0.002,0.01569 16.870475,16.979705 0.00645558 0 0 -11.9443501,13.914951 16.870475,16.979705 0.00645558 0 0 1.3887375,9.493981 16.870475,16.979705 0.00645558 0 0 -3.9418821,8.730069 16.870475,16.979705 0.00645558 0 0 7.642332,16.696728 16.870475,16.979705 0.00645558 0 0 -0.00402,0.02226 16.870475,16.979705 0.00645558 0 0 14.3455937,19.187417 16.870475,16.979705 0.00645558 0 0 2.421866,0.166552 16.870475,16.979705 0.00645558 0 0 12.982008,9.749123 16.870475,16.979705 0.00645558 0 0 11.535924,-2.565096 16.870475,16.979705 0.00645558 0 0 6.748531,2.521063 16.870475,16.979705 0.00645558 0 0 17.73519,-9.825065 16.870475,16.979705 0.00645558 0 0 16.684468,-14.60546 16.870475,16.979705 0.00645558 0 0 -0.01509,-4.853806 A 16.870475,16.979705 0.00645558 0 0 98.825037,57.59302 16.870475,16.979705 0.00645558 0 0 94.8233,44.045094 16.870475,16.979705 0.00645558 0 0 96.17381,39.385686 16.870475,16.979705 0.00645558 0 0 84.160546,20.701476 16.870475,16.979705 0.00645558 0 0 69.822998,6.3167347 16.870475,16.979705 0.00645558 0 0 62.645425,6.8573965 16.870475,16.979705 0.00645558 0 0 52.265855,1.1763982 16.870475,16.979705 0.00645558 0 0 49.961689,1.0093398 a 16.870475,16.979705 0.00645558 0 0 -0.175541,0 z m 6.005121,29.6721052 a 12.166657,12.245369 0 0 0 10.78296,6.574507 12.166657,12.245369 0 0 0 9.215666,-4.250372 13.879614,6.661222 15.147915 0 1 1.548181,0.371581 A 13.879614,6.661222 15.147915 0 1 89.025403,43.428507 13.879614,6.661222 15.147915 0 1 73.910747,46.251795 13.879614,6.661222 15.147915 0 1 73.398709,46.10853 24.174235,24.330629 0 0 1 49.544211,66.495224 24.174235,24.330629 0 0 1 25.729952,46.345955 6.661222,13.879614 74.852085 0 1 10.97493,43.428507 6.661222,13.879614 74.852085 0 1 22.661753,33.377161 a 6.661222,13.879614 74.852085 0 1 0.874688,-0.221226 12.087116,12.165313 0 0 0 9.085392,4.142541 12.087116,12.165313 0 0 0 10.738194,-6.579063 12.087116,12.165313 0 0 0 6.184184,1.71311 12.087116,12.165313 0 0 0 6.247058,-1.751078 z" />
    <path
       style="color:#000000;font-style:normal;font-variant:normal;font-weight:normal;font-stretch:normal;font-size:medium;line-height:normal;font-family:sans-serif;font-variant-ligatures:normal;font-variant-position:normal;font-variant-caps:normal;font-variant-numeric:normal;font-variant-alternates:normal;font-variant-east-asian:normal;font-feature-settings:normal;font-variation-settings:normal;text-indent:0;text-align:start;text-decoration:none;text-decoration-line:none;text-decoration-style:solid;text-decoration-color:#000000;letter-spacing:normal;word-spacing:normal;text-transform:none;writing-mode:lr-tb;direction:ltr;text-orientation:mixed;dominant-baseline:auto;baseline-shift:baseline;text-anchor:start;white-space:normal;shape-padding:0;shape-margin:0;inline-size:0;clip-rule:nonzero;display:inline;overflow:visible;visibility:visible;isolation:auto;mix-blend-mode:normal;color-interpolation:sRGB;color-interpolation-filters:linearRGB;solid-color:#000000;solid-opacity:1;vector-effect:none;fill:#000000;fill-opacity:1;fill-rule:nonzero;stroke:none;stroke-width:0.264583;stroke-linecap:round;stroke-linejoin:round;stroke-miterlimit:4;stroke-dasharray:none;stroke-dashoffset:0;stroke-opacity:1;color-rendering:auto;image-rendering:auto;shape-rendering:auto;text-rendering:auto;enable-background:accumulate;stop-color:#000000"
       d="m 46.136512,58.350197 a 0.80370989,0.80370989 0 0 0 -0.680061,0.384472 l -0.0057,0.0093 a 0.80370989,0.80370989 0 0 0 0.284218,1.115176 l 3.788918,2.187464 v 4.356325 a 0.80370989,0.80370989 0 0 0 0.803569,0.803569 h 0.01138 a 0.80370989,0.80370989 0 0 0 0.803566,-0.803569 v -4.356325 l 3.788918,-2.187464 a 0.80370989,0.80370989 0 0 0 0.300757,-1.08572 l -0.0052,-0.0093 a 0.80370989,0.80370989 0 0 0 -1.104842,-0.306441 l -3.788916,2.187464 -3.788915,-2.187464 a 0.80370989,0.80370989 0 0 0 -0.407728,-0.107487 z"
       id="path3699" />
  </g>
</svg>
