<?xml version="1.0" encoding="UTF-8" standalone="no"?>
<svg
   xmlns:dc="http://purl.org/dc/elements/1.1/"
   xmlns:cc="http://creativecommons.org/ns#"
   xmlns:rdf="http://www.w3.org/1999/02/22-rdf-syntax-ns#"
   xmlns:svg="http://www.w3.org/2000/svg"
   xmlns="http://www.w3.org/2000/svg"
   xmlns:sodipodi="http://sodipodi.sourceforge.net/DTD/sodipodi-0.dtd"
   xmlns:inkscape="http://www.inkscape.org/namespaces/inkscape"
   width="100mm"
   height="100mm"
   viewBox="0 0 100 100"
   version="1.1"
   id="svg8"
   sodipodi:docname="icon.svg"
   inkscape:version="1.0.2 (e86c870879, 2021-01-15, custom)">
  <defs
     id="defs2" />
  <sodipodi:namedview
     id="base"
     pagecolor="#ffffff"
     bordercolor="#666666"
     borderopacity="1.0"
     inkscape:pageopacity="0.0"
     inkscape:pageshadow="2"
     inkscape:zoom="1.4"
     inkscape:cx="104.53232"
     inkscape:cy="157.30359"
     inkscape:document-units="mm"
     inkscape:current-layer="layer1"
     inkscape:document-rotation="0"
     showgrid="false"
     inkscape:window-width="2560"
     inkscape:window-height="1369"
     inkscape:window-x="-8"
     inkscape:window-y="-8"
     inkscape:window-maximized="1" />
  <metadata
     id="metadata5">
    <rdf:RDF>
      <cc:Work
         rdf:about="">
        <dc:format>image/svg+xml</dc:format>
        <dc:type
           rdf:resource="http://purl.org/dc/dcmitype/StillImage" />
        <dc:title></dc:title>
      </cc:Work>
    </rdf:RDF>
  </metadata>
  <g
     inkscape:label="Layer 1"
     inkscape:groupmode="layer"
     id="layer1">
    <g
       id="g2961"
       transform="matrix(0.95273433,0.13456101,-0.13456101,0.95273433,0.19694537,-45.025575)">
      <path
         id="path844"
         style="fill:#000000;stroke:none;stroke-width:0;stroke-miterlimit:4;stroke-dasharray:none"
         d="M 100.14747,91.196611 A 34.653466,34.653649 0 0 1 65.494004,125.85026 34.653466,34.653649 0 0 1 30.840538,91.196611 34.653466,34.653649 0 0 1 65.494004,56.542965 34.653466,34.653649 0 0 1 100.14747,91.196611 Z" />
      <g
         id="g2908"
         style="fill:#000000;stroke:none;stroke-width:0;stroke-miterlimit:4;stroke-dasharray:none">
        <path
           id="path4588"
           style="fill:#000000;stroke:none;stroke-width:0;stroke-miterlimit:4;stroke-dasharray:none"
           d="M 83.507799,91.196603 A 18.013796,18.01389 0 0 1 65.494003,109.21051 18.013796,18.01389 0 0 1 47.480209,91.196603 18.013796,18.01389 0 0 1 65.494003,73.182717 18.013796,18.01389 0 0 1 83.507799,91.196603 Z"
           transform="translate(34.6535,1.1e-5)" />
        <path
           id="path3751"
           style="fill:#000000;stroke:none;stroke-width:0;stroke-miterlimit:4;stroke-dasharray:none"
           d="M 83.507799,91.196603 A 18.013796,18.01389 0 0 1 65.494003,109.21051 18.013796,18.01389 0 0 1 47.480209,91.196603 18.013796,18.01389 0 0 1 65.494003,73.182717 18.013796,18.01389 0 0 1 83.507799,91.196603 Z"
           transform="translate(29.1483,18.7309)" />
        <path
           id="path1319"
           style="fill:#000000;stroke:none;stroke-width:0;stroke-miterlimit:4;stroke-dasharray:none"
           d="M 83.507799,91.196603 A 18.013796,18.01389 0 0 1 65.494003,109.21051 18.013796,18.01389 0 0 1 47.480209,91.196603 18.013796,18.01389 0 0 1 65.494003,73.182717 18.013796,18.01389 0 0 1 83.507799,91.196603 Z"
           transform="translate(14.3958,31.5203)" />
        <path
           id="path7509"
           style="fill:#000000;stroke:none;stroke-width:0;stroke-miterlimit:4;stroke-dasharray:none"
           d="M 83.507799,91.196603 A 18.013796,18.01389 0 0 1 65.494003,109.21051 18.013796,18.01389 0 0 1 47.480209,91.196603 18.013796,18.01389 0 0 1 65.494003,73.182717 18.013796,18.01389 0 0 1 83.507799,91.196603 Z"
           transform="translate(-4.92984,34.2972)" />
        <path
           id="path4668"
           style="fill:#000000;stroke:none;stroke-width:0;stroke-miterlimit:4;stroke-dasharray:none"
           d="M 83.507799,91.196603 A 18.013796,18.01389 0 0 1 65.494003,109.21051 18.013796,18.01389 0 0 1 47.480209,91.196603 18.013796,18.01389 0 0 1 65.494003,73.182717 18.013796,18.01389 0 0 1 83.507799,91.196603 Z"
           transform="translate(-22.687,26.1812)" />
        <path
           id="path4538"
           style="fill:#000000;stroke:none;stroke-width:0;stroke-miterlimit:4;stroke-dasharray:none"
           d="M 83.507799,91.196603 A 18.013796,18.01389 0 0 1 65.494003,109.21051 18.013796,18.01389 0 0 1 47.480209,91.196603 18.013796,18.01389 0 0 1 65.494003,73.182717 18.013796,18.01389 0 0 1 83.507799,91.196603 Z"
           transform="translate(-33.2443,9.75867)" />
        <path
           id="path7714"
           style="fill:#000000;stroke:none;stroke-width:0;stroke-miterlimit:4;stroke-dasharray:none"
           d="M 83.507799,91.196603 A 18.013796,18.01389 0 0 1 65.494003,109.21051 18.013796,18.01389 0 0 1 47.480209,91.196603 18.013796,18.01389 0 0 1 65.494003,73.182717 18.013796,18.01389 0 0 1 83.507799,91.196603 Z"
           transform="translate(-33.2484,-9.76639)" />
        <path
           id="path6680"
           style="fill:#000000;stroke:none;stroke-width:0;stroke-miterlimit:4;stroke-dasharray:none"
           d="M 83.507799,91.196603 A 18.013796,18.01389 0 0 1 65.494003,109.21051 18.013796,18.01389 0 0 1 47.480209,91.196603 18.013796,18.01389 0 0 1 65.494003,73.182717 18.013796,18.01389 0 0 1 83.507799,91.196603 Z"
           transform="translate(-22.6848,-26.1844)" />
        <path
           id="path4030"
           style="fill:#000000;stroke:none;stroke-width:0;stroke-miterlimit:4;stroke-dasharray:none"
           d="M 83.507799,91.196603 A 18.013796,18.01389 0 0 1 65.494003,109.21051 18.013796,18.01389 0 0 1 47.480209,91.196603 18.013796,18.01389 0 0 1 65.494003,73.182717 18.013796,18.01389 0 0 1 83.507799,91.196603 Z"
           transform="translate(-4.92983,-34.2985)" />
        <path
           id="path4388"
           style="fill:#000000;stroke:none;stroke-width:0;stroke-miterlimit:4;stroke-dasharray:none"
           d="M 83.507799,91.196603 A 18.013796,18.01389 0 0 1 65.494003,109.21051 18.013796,18.01389 0 0 1 47.480209,91.196603 18.013796,18.01389 0 0 1 65.494003,73.182717 18.013796,18.01389 0 0 1 83.507799,91.196603 Z"
           transform="translate(14.3958,-31.5203)" />
        <path
           id="path1777"
           style="fill:#000000;stroke:none;stroke-width:0;stroke-miterlimit:4;stroke-dasharray:none"
           d="M 83.507799,91.196603 A 18.013796,18.01389 0 0 1 65.494003,109.21051 18.013796,18.01389 0 0 1 47.480209,91.196603 18.013796,18.01389 0 0 1 65.494003,73.182717 18.013796,18.01389 0 0 1 83.507799,91.196603 Z"
           transform="translate(29.1483,-18.7308)" />
        <path
           id="path4466"
           style="fill:#000000;stroke:none;stroke-width:0;stroke-miterlimit:4;stroke-dasharray:none"
           d="M 83.507799,91.196603 A 18.013796,18.01389 0 0 1 65.494003,109.21051 18.013796,18.01389 0 0 1 47.480209,91.196603 18.013796,18.01389 0 0 1 65.494003,73.182717 18.013796,18.01389 0 0 1 83.507799,91.196603 Z"
           transform="translate(34.653)" />
        <path
           id="path5713"
           style="fill:#000000;stroke:none;stroke-width:0;stroke-miterlimit:4;stroke-dasharray:none"
           d="M 83.507799,91.196603 A 18.013796,18.01389 0 0 1 65.494003,109.21051 18.013796,18.01389 0 0 1 47.480209,91.196603 18.013796,18.01389 0 0 1 65.494003,73.182717 18.013796,18.01389 0 0 1 83.507799,91.196603 Z"
           transform="translate(29.1478,18.7307)" />
        <path
           id="path3918"
           style="fill:#000000;stroke:none;stroke-width:0;stroke-miterlimit:4;stroke-dasharray:none"
           d="M 83.507799,91.196603 A 18.013796,18.01389 0 0 1 65.494003,109.21051 18.013796,18.01389 0 0 1 47.480209,91.196603 18.013796,18.01389 0 0 1 65.494003,73.182717 18.013796,18.01389 0 0 1 83.507799,91.196603 Z"
           transform="translate(14.3953,31.52)" />
        <path
           id="path6554"
           style="fill:#000000;stroke:none;stroke-width:0;stroke-miterlimit:4;stroke-dasharray:none"
           d="M 83.507799,91.196603 A 18.013796,18.01389 0 0 1 65.494003,109.21051 18.013796,18.01389 0 0 1 47.480209,91.196603 18.013796,18.01389 0 0 1 65.494003,73.182717 18.013796,18.01389 0 0 1 83.507799,91.196603 Z"
           transform="translate(-4.93015,34.2982)" />
        <path
           id="path3257"
           style="fill:#000000;stroke:none;stroke-width:0;stroke-miterlimit:4;stroke-dasharray:none"
           d="M 83.507799,91.196603 A 18.013796,18.01389 0 0 1 65.494003,109.21051 18.013796,18.01389 0 0 1 47.480209,91.196603 18.013796,18.01389 0 0 1 65.494003,73.182717 18.013796,18.01389 0 0 1 83.507799,91.196603 Z"
           transform="translate(-22.6849,26.184)" />
        <path
           id="path877"
           style="fill:#000000;stroke:none;stroke-width:0;stroke-miterlimit:4;stroke-dasharray:none"
           d="M 83.507799,91.196603 A 18.013796,18.01389 0 0 1 65.494003,109.21051 18.013796,18.01389 0 0 1 47.480209,91.196603 18.013796,18.01389 0 0 1 65.494003,73.182717 18.013796,18.01389 0 0 1 83.507799,91.196603 Z"
           transform="translate(-33.2485,9.76614)" />
        <path
           id="path5802"
           style="fill:#000000;stroke:none;stroke-width:0;stroke-miterlimit:4;stroke-dasharray:none"
           d="M 83.507799,91.196603 A 18.013796,18.01389 0 0 1 65.494003,109.21051 18.013796,18.01389 0 0 1 47.480209,91.196603 18.013796,18.01389 0 0 1 65.494003,73.182717 18.013796,18.01389 0 0 1 83.507799,91.196603 Z"
           transform="translate(-33.2443,-9.75878)" />
        <path
           id="path4882"
           style="fill:#000000;stroke:none;stroke-width:0;stroke-miterlimit:4;stroke-dasharray:none"
           d="M 83.507799,91.196603 A 18.013796,18.01389 0 0 1 65.494003,109.21051 18.013796,18.01389 0 0 1 47.480209,91.196603 18.013796,18.01389 0 0 1 65.494003,73.182717 18.013796,18.01389 0 0 1 83.507799,91.196603 Z"
           transform="translate(-22.687,-26.1812)" />
        <path
           id="path7137"
           style="fill:#000000;stroke:none;stroke-width:0;stroke-miterlimit:4;stroke-dasharray:none"
           d="M 83.507799,91.196603 A 18.013796,18.01389 0 0 1 65.494003,109.21051 18.013796,18.01389 0 0 1 47.480209,91.196603 18.013796,18.01389 0 0 1 65.494003,73.182717 18.013796,18.01389 0 0 1 83.507799,91.196603 Z"
           transform="translate(-4.92996,-34.2971)" />
        <path
           id="path6970"
           style="fill:#000000;stroke:none;stroke-width:0;stroke-miterlimit:4;stroke-dasharray:none"
           d="M 83.507799,91.196603 A 18.013796,18.01389 0 0 1 65.494003,109.21051 18.013796,18.01389 0 0 1 47.480209,91.196603 18.013796,18.01389 0 0 1 65.494003,73.182717 18.013796,18.01389 0 0 1 83.507799,91.196603 Z"
           transform="translate(14.3955,-31.5202)" />
        <path
           id="path1624"
           style="fill:#000000;stroke:none;stroke-width:0;stroke-miterlimit:4;stroke-dasharray:none"
           d="M 83.507799,91.196603 A 18.013796,18.01389 0 0 1 65.494003,109.21051 18.013796,18.01389 0 0 1 47.480209,91.196603 18.013796,18.01389 0 0 1 65.494003,73.182717 18.013796,18.01389 0 0 1 83.507799,91.196603 Z"
           transform="translate(29.1479,-18.7307)" />
        <path
           id="path9316"
           style="fill:#000000;stroke:none;stroke-width:0;stroke-miterlimit:4;stroke-dasharray:none"
           d="M 83.507799,91.196603 A 18.013796,18.01389 0 0 1 65.494003,109.21051 18.013796,18.01389 0 0 1 47.480209,91.196603 18.013796,18.01389 0 0 1 65.494003,73.182717 18.013796,18.01389 0 0 1 83.507799,91.196603 Z"
           transform="translate(34.653)" />
      </g>
    </g>
    <circle
       style="fill:#ffffff;stroke:none;stroke-width:0;stroke-miterlimit:4;stroke-dasharray:none"
       id="path2963"
       cx="50"
       cy="42"
       r="25" />
    <ellipse
       style="fill:#ffffff;stroke:none;stroke-width:0;stroke-linecap:round;stroke-linejoin:round;stroke-miterlimit:4;stroke-dasharray:none;stroke-opacity:1"
       id="path3084-5"
       cx="-12.909223"
       cy="44.440701"
       rx="14.347468"
       ry="6.8474674"
       transform="matrix(-0.96592583,0.25881905,0.25881905,0.96592583,0,0)" />
    <circle
       style="fill:#000000;stroke:none;stroke-width:0;stroke-miterlimit:4;stroke-dasharray:none"
       id="path2967"
       cx="32.5"
       cy="24.5"
       r="12.5" />
    <circle
       style="fill:#000000;stroke:none;stroke-width:0;stroke-miterlimit:4;stroke-dasharray:none"
       id="path2967-5"
       cx="50"
       cy="19.5"
       r="12.5" />
    <ellipse
       style="fill:#ffffff;stroke:none;stroke-width:0;stroke-linecap:round;stroke-linejoin:round;stroke-miterlimit:4;stroke-dasharray:none;stroke-opacity:1"
       id="path3084"
       cx="84.594139"
       cy="18.314753"
       rx="14.347468"
       ry="6.8474674"
       transform="rotate(15)" />
    <circle
       style="fill:#000000;stroke:none;stroke-width:0;stroke-miterlimit:4;stroke-dasharray:none"
       id="path2967-6"
       cx="67.5"
       cy="24.5"
       r="12.5" />
    <circle
       id="path3031"
       style="fill:#000000;stroke:#000000;stroke-width:0.264583"
       cx="-40.090427"
       cy="7.6171818"
       r="0" />
    <circle
       id="path3033"
       style="fill:#000000;stroke:#000000;stroke-width:0.264583"
       cx="-39.823158"
       cy="33.275055"
       r="0" />
    <g
       id="g3082"
       style="stroke-width:2;stroke-miterlimit:4;stroke-dasharray:none"
       transform="matrix(0.80362898,0,0,0.80362898,68.243818,24.138049)">
      <rect
         style="fill:#000000;stroke:#000000;stroke-width:2;stroke-linecap:round;stroke-linejoin:round;stroke-miterlimit:4;stroke-dasharray:none;stroke-opacity:1"
         id="rect3037"
         width="0.013751259"
         height="6.0137515"
         x="22.694914"
         y="46.578667"
         transform="scale(-1,1)" />
      <rect
         style="fill:#000000;stroke:#000000;stroke-width:2;stroke-linecap:round;stroke-linejoin:round;stroke-miterlimit:4;stroke-dasharray:none;stroke-opacity:1"
         id="rect3037-0"
         width="0.013751259"
         height="6.0137515"
         x="-51.706394"
         y="-3.6230519"
         transform="matrix(0.5,-0.8660254,-0.8660254,-0.5,0,0)" />
      <rect
         style="fill:#000000;stroke:#000000;stroke-width:2;stroke-linecap:round;stroke-linejoin:round;stroke-miterlimit:4;stroke-dasharray:none;stroke-opacity:1"
         id="rect3037-04"
         width="0.013751259"
         height="6.0137515"
         x="28.990852"
         y="-42.943707"
         transform="matrix(0.5,0.8660254,0.8660254,-0.5,0,0)" />
    </g>
  </g>
</svg>
