<?xml version="1.0" encoding="UTF-8" standalone="no"?>
<svg
   xmlns:dc="http://purl.org/dc/elements/1.1/"
   xmlns:cc="http://creativecommons.org/ns#"
   xmlns:rdf="http://www.w3.org/1999/02/22-rdf-syntax-ns#"
   xmlns:svg="http://www.w3.org/2000/svg"
   xmlns="http://www.w3.org/2000/svg"
   xmlns:sodipodi="http://sodipodi.sourceforge.net/DTD/sodipodi-0.dtd"
   xmlns:inkscape="http://www.inkscape.org/namespaces/inkscape"
   width="100mm"
   height="100mm"
   viewBox="0 0 100 100"
   version="1.1"
   id="svg8"
   sodipodi:docname="icon_white.svg"
   inkscape:version="1.0.2 (e86c870879, 2021-01-15, custom)"
   inkscape:export-filename="D:\Projects\Dolly\icon.png"
   inkscape:export-xdpi="32.512016"
   inkscape:export-ydpi="32.512016">
  <defs
     id="defs2" />
  <sodipodi:namedview
     id="base"
     pagecolor="#ffffff"
     bordercolor="#666666"
     borderopacity="1.0"
     inkscape:pageopacity="0.0"
     inkscape:pageshadow="2"
     inkscape:zoom="1.4"
     inkscape:cx="265.0434"
     inkscape:cy="157.30359"
     inkscape:document-units="mm"
     inkscape:current-layer="layer1"
     inkscape:document-rotation="0"
     showgrid="false"
     inkscape:window-width="2560"
     inkscape:window-height="1369"
     inkscape:window-x="-8"
     inkscape:window-y="-8"
     inkscape:window-maximized="1" />
  <metadata
     id="metadata5">
    <rdf:RDF>
      <cc:Work
         rdf:about="">
        <dc:format>image/svg+xml</dc:format>
        <dc:type
           rdf:resource="http://purl.org/dc/dcmitype/StillImage" />
        <dc:title />
      </cc:Work>
    </rdf:RDF>
  </metadata>
  <g
     inkscape:label="Layer 1"
     inkscape:groupmode="layer"
     id="layer1">
    <circle
       id="path3031"
       style="fill:#000000;stroke:#000000;stroke-width:0.264583"
       cx="-40.090427"
       cy="7.6171818"
       r="0" />
    <circle
       id="path3033"
       style="fill:#000000;stroke:#000000;stroke-width:0.264583"
       cx="-39.823158"
       cy="33.275055"
       r="0" />
    <circle
       id="path3031-7"
       style="fill:#000000;stroke:#000000;stroke-width:0.264583"
       cx="-164.88779"
       cy="6.9330935"
       r="0" />
    <circle
       id="path3033-9"
       style="fill:#000000;stroke:#000000;stroke-width:0.264583"
       cx="-164.62051"
       cy="32.590965"
       r="0" />
    <ellipse
       style="fill:#ffffff;stroke:none;stroke-width:0;stroke-linecap:round;stroke-linejoin:round;stroke-miterlimit:4;stroke-dasharray:none;stroke-opacity:1"
       id="path3708"
       cx="50.16177"
       cy="49.016441"
       rx="43.169212"
       ry="25.959894" />
    <path
       id="path844-3"
       style="fill:#ffffff;stroke:#000000;stroke-width:3.92228;stroke-miterlimit:4;stroke-dasharray:none"
       d="M 49.79029,1.9613654 A 16.54266,16.649786 0.00645448 0 0 37.361399,7.7608216 16.54266,16.649786 0.00645448 0 0 35.03542,7.2559814 16.54266,16.649786 0.00645448 0 0 16.341779,21.413843 a 16.54266,16.649786 0.00645448 0 0 -0.002,0.01539 16.54266,16.649786 0.00645448 0 0 -11.7122561,13.64458 16.54266,16.649786 0.00645448 0 0 1.3617525,9.309511 16.54266,16.649786 0.00645448 0 0 -3.8652862,8.560442 16.54266,16.649786 0.00645448 0 0 7.4938316,16.372307 16.54266,16.649786 0.00645448 0 0 -0.00394,0.02183 16.54266,16.649786 0.00645448 0 0 14.0668402,18.814601 16.54266,16.649786 0.00645448 0 0 2.374806,0.163316 16.54266,16.649786 0.00645448 0 0 12.729751,9.559696 16.54266,16.649786 0.00645448 0 0 11.311766,-2.515256 16.54266,16.649786 0.00645448 0 0 6.617398,2.472078 16.54266,16.649786 0.00645448 0 0 17.390612,-9.634167 16.54266,16.649786 0.00645448 0 0 16.360267,-14.321673 16.54266,16.649786 0.00645448 0 0 -0.0148,-4.759495 16.54266,16.649786 0.00645448 0 0 7.425768,-11.67139 A 16.54266,16.649786 0.00645448 0 0 93.952312,44.160926 16.54266,16.649786 0.00645448 0 0 95.276579,39.592051 16.54266,16.649786 0.00645448 0 0 83.496749,21.27088 16.54266,16.649786 0.00645448 0 0 69.437798,7.1656365 16.54266,16.649786 0.00645448 0 0 62.399695,7.6957932 16.54266,16.649786 0.00645448 0 0 52.221813,2.1251778 16.54266,16.649786 0.00645448 0 0 49.96242,1.9613654 a 16.54266,16.649786 0.00645448 0 0 -0.17213,0 z m 5.888433,29.0955696 a 11.930243,12.007439 0 0 0 10.573434,6.446763 11.930243,12.007439 0 0 0 9.036593,-4.167786 13.609916,6.5317925 15.147941 0 1 1.518098,0.364361 13.609916,6.5317925 15.147941 0 1 11.460227,9.856046 13.609916,6.5317925 15.147941 0 1 -14.820958,2.768432 13.609916,6.5317925 15.147941 0 1 -0.502089,-0.140482 23.704498,23.857879 0 0 1 -23.390974,19.990577 23.704498,23.857879 0 0 1 -23.351517,-19.757765 6.5317925,13.609916 74.852059 0 1 -14.468312,-2.860762 6.5317925,13.609916 74.852059 0 1 11.459733,-9.856046 6.5317925,13.609916 74.852059 0 1 0.857691,-0.216927 11.852247,11.928939 0 0 0 8.908851,4.06205 11.852247,11.928939 0 0 0 10.529537,-6.451231 11.852247,11.928939 0 0 0 6.064017,1.679824 11.852247,11.928939 0 0 0 6.125669,-1.717054 z" />
    <path
       style="color:#000000;font-style:normal;font-variant:normal;font-weight:normal;font-stretch:normal;font-size:medium;line-height:normal;font-family:sans-serif;font-variant-ligatures:normal;font-variant-position:normal;font-variant-caps:normal;font-variant-numeric:normal;font-variant-alternates:normal;font-variant-east-asian:normal;font-feature-settings:normal;font-variation-settings:normal;text-indent:0;text-align:start;text-decoration:none;text-decoration-line:none;text-decoration-style:solid;text-decoration-color:#000000;letter-spacing:normal;word-spacing:normal;text-transform:none;writing-mode:lr-tb;direction:ltr;text-orientation:mixed;dominant-baseline:auto;baseline-shift:baseline;text-anchor:start;white-space:normal;shape-padding:0;shape-margin:0;inline-size:0;clip-rule:nonzero;display:inline;overflow:visible;visibility:visible;isolation:auto;mix-blend-mode:normal;color-interpolation:sRGB;color-interpolation-filters:linearRGB;solid-color:#000000;solid-opacity:1;vector-effect:none;fill:#000000;fill-opacity:1;fill-rule:nonzero;stroke:#000000;stroke-width:0.875112;stroke-linecap:round;stroke-linejoin:round;stroke-miterlimit:4;stroke-dasharray:none;stroke-dashoffset:0;stroke-opacity:1;color-rendering:auto;image-rendering:auto;shape-rendering:auto;text-rendering:auto;enable-background:accumulate;stop-color:#000000"
       d="m 42.88474,52.624494 a 1.3627076,1.3627076 0 0 0 -1.153057,0.65188 l -0.0097,0.01577 a 1.3627076,1.3627076 0 0 0 0.481897,1.890806 l 6.424193,3.708893 v 7.386243 a 1.3627076,1.3627076 0 0 0 1.362469,1.362469 h 0.0193 a 1.3627076,1.3627076 0 0 0 1.362463,-1.362469 v -7.386243 l 6.424193,-3.708893 a 1.3627076,1.3627076 0 0 0 0.50994,-1.840862 l -0.0088,-0.01577 a 1.3627076,1.3627076 0 0 0 -1.873283,-0.519577 l -6.42419,3.708893 -6.424188,-3.708893 a 1.3627076,1.3627076 0 0 0 -0.691311,-0.182246 z"
       id="path3699" />
  </g>
</svg>
