<?xml version="1.0" encoding="UTF-8" standalone="no"?>
<svg
   xmlns:dc="http://purl.org/dc/elements/1.1/"
   xmlns:cc="http://creativecommons.org/ns#"
   xmlns:rdf="http://www.w3.org/1999/02/22-rdf-syntax-ns#"
   xmlns:svg="http://www.w3.org/2000/svg"
   xmlns="http://www.w3.org/2000/svg"
   xmlns:sodipodi="http://sodipodi.sourceforge.net/DTD/sodipodi-0.dtd"
   xmlns:inkscape="http://www.inkscape.org/namespaces/inkscape"
   width="100mm"
   height="100mm"
   viewBox="0 0 100 100"
   version="1.1"
   id="svg8"
   sodipodi:docname="icon_simplified.svg"
   inkscape:version="1.0.2 (e86c870879, 2021-01-15, custom)">
  <defs
     id="defs2" />
  <sodipodi:namedview
     id="base"
     pagecolor="#ffffff"
     bordercolor="#666666"
     borderopacity="1.0"
     inkscape:pageopacity="0.0"
     inkscape:pageshadow="2"
     inkscape:zoom="1.4"
     inkscape:cx="62.857909"
     inkscape:cy="157.30359"
     inkscape:document-units="mm"
     inkscape:current-layer="layer1"
     inkscape:document-rotation="0"
     showgrid="false"
     inkscape:window-width="2560"
     inkscape:window-height="1369"
     inkscape:window-x="-8"
     inkscape:window-y="-8"
     inkscape:window-maximized="1" />
  <metadata
     id="metadata5">
    <rdf:RDF>
      <cc:Work
         rdf:about="">
        <dc:format>image/svg+xml</dc:format>
        <dc:type
           rdf:resource="http://purl.org/dc/dcmitype/StillImage" />
        <dc:title></dc:title>
      </cc:Work>
    </rdf:RDF>
  </metadata>
  <g
     inkscape:label="Layer 1"
     inkscape:groupmode="layer"
     id="layer1">
    <circle
       id="path3031"
       style="fill:#000000;stroke:#000000;stroke-width:0.264583"
       cx="-40.090427"
       cy="7.6171818"
       r="0" />
    <circle
       id="path3033"
       style="fill:#000000;stroke:#000000;stroke-width:0.264583"
       cx="-39.823158"
       cy="33.275055"
       r="0" />
    <g
       id="g3683"
       transform="translate(106.4003,-1.5119048)">
      <g
         id="g2961"
         transform="matrix(0.95273433,0.13456101,-0.13456101,0.95273433,0.19694537,-45.025575)">
        <path
           id="path844"
           style="fill:#000000;stroke:none;stroke-width:0;stroke-miterlimit:4;stroke-dasharray:none"
           d="M 100.14747,91.196611 A 34.653466,34.653649 0 0 1 65.494004,125.85026 34.653466,34.653649 0 0 1 30.840538,91.196611 34.653466,34.653649 0 0 1 65.494004,56.542965 34.653466,34.653649 0 0 1 100.14747,91.196611 Z" />
        <g
           id="g2908"
           style="fill:#000000;stroke:none;stroke-width:0;stroke-miterlimit:4;stroke-dasharray:none">
          <path
             id="path4588"
             style="fill:#000000;stroke:none;stroke-width:0;stroke-miterlimit:4;stroke-dasharray:none"
             d="M 83.507799,91.196603 A 18.013796,18.01389 0 0 1 65.494003,109.21051 18.013796,18.01389 0 0 1 47.480209,91.196603 18.013796,18.01389 0 0 1 65.494003,73.182717 18.013796,18.01389 0 0 1 83.507799,91.196603 Z"
             transform="translate(34.6535,1.1e-5)" />
          <path
             id="path3751"
             style="fill:#000000;stroke:none;stroke-width:0;stroke-miterlimit:4;stroke-dasharray:none"
             d="M 83.507799,91.196603 A 18.013796,18.01389 0 0 1 65.494003,109.21051 18.013796,18.01389 0 0 1 47.480209,91.196603 18.013796,18.01389 0 0 1 65.494003,73.182717 18.013796,18.01389 0 0 1 83.507799,91.196603 Z"
             transform="translate(29.1483,18.7309)" />
          <path
             id="path1319"
             style="fill:#000000;stroke:none;stroke-width:0;stroke-miterlimit:4;stroke-dasharray:none"
             d="M 83.507799,91.196603 A 18.013796,18.01389 0 0 1 65.494003,109.21051 18.013796,18.01389 0 0 1 47.480209,91.196603 18.013796,18.01389 0 0 1 65.494003,73.182717 18.013796,18.01389 0 0 1 83.507799,91.196603 Z"
             transform="translate(14.3958,31.5203)" />
          <path
             id="path7509"
             style="fill:#000000;stroke:none;stroke-width:0;stroke-miterlimit:4;stroke-dasharray:none"
             d="M 83.507799,91.196603 A 18.013796,18.01389 0 0 1 65.494003,109.21051 18.013796,18.01389 0 0 1 47.480209,91.196603 18.013796,18.01389 0 0 1 65.494003,73.182717 18.013796,18.01389 0 0 1 83.507799,91.196603 Z"
             transform="translate(-4.92984,34.2972)" />
          <path
             id="path4668"
             style="fill:#000000;stroke:none;stroke-width:0;stroke-miterlimit:4;stroke-dasharray:none"
             d="M 83.507799,91.196603 A 18.013796,18.01389 0 0 1 65.494003,109.21051 18.013796,18.01389 0 0 1 47.480209,91.196603 18.013796,18.01389 0 0 1 65.494003,73.182717 18.013796,18.01389 0 0 1 83.507799,91.196603 Z"
             transform="translate(-22.687,26.1812)" />
          <path
             id="path4538"
             style="fill:#000000;stroke:none;stroke-width:0;stroke-miterlimit:4;stroke-dasharray:none"
             d="M 83.507799,91.196603 A 18.013796,18.01389 0 0 1 65.494003,109.21051 18.013796,18.01389 0 0 1 47.480209,91.196603 18.013796,18.01389 0 0 1 65.494003,73.182717 18.013796,18.01389 0 0 1 83.507799,91.196603 Z"
             transform="translate(-33.2443,9.75867)" />
          <path
             id="path7714"
             style="fill:#000000;stroke:none;stroke-width:0;stroke-miterlimit:4;stroke-dasharray:none"
             d="M 83.507799,91.196603 A 18.013796,18.01389 0 0 1 65.494003,109.21051 18.013796,18.01389 0 0 1 47.480209,91.196603 18.013796,18.01389 0 0 1 65.494003,73.182717 18.013796,18.01389 0 0 1 83.507799,91.196603 Z"
             transform="translate(-33.2484,-9.76639)" />
          <path
             id="path6680"
             style="fill:#000000;stroke:none;stroke-width:0;stroke-miterlimit:4;stroke-dasharray:none"
             d="M 83.507799,91.196603 A 18.013796,18.01389 0 0 1 65.494003,109.21051 18.013796,18.01389 0 0 1 47.480209,91.196603 18.013796,18.01389 0 0 1 65.494003,73.182717 18.013796,18.01389 0 0 1 83.507799,91.196603 Z"
             transform="translate(-22.6848,-26.1844)" />
          <path
             id="path4030"
             style="fill:#000000;stroke:none;stroke-width:0;stroke-miterlimit:4;stroke-dasharray:none"
             d="M 83.507799,91.196603 A 18.013796,18.01389 0 0 1 65.494003,109.21051 18.013796,18.01389 0 0 1 47.480209,91.196603 18.013796,18.01389 0 0 1 65.494003,73.182717 18.013796,18.01389 0 0 1 83.507799,91.196603 Z"
             transform="translate(-4.92983,-34.2985)" />
          <path
             id="path4388"
             style="fill:#000000;stroke:none;stroke-width:0;stroke-miterlimit:4;stroke-dasharray:none"
             d="M 83.507799,91.196603 A 18.013796,18.01389 0 0 1 65.494003,109.21051 18.013796,18.01389 0 0 1 47.480209,91.196603 18.013796,18.01389 0 0 1 65.494003,73.182717 18.013796,18.01389 0 0 1 83.507799,91.196603 Z"
             transform="translate(14.3958,-31.5203)" />
          <path
             id="path1777"
             style="fill:#000000;stroke:none;stroke-width:0;stroke-miterlimit:4;stroke-dasharray:none"
             d="M 83.507799,91.196603 A 18.013796,18.01389 0 0 1 65.494003,109.21051 18.013796,18.01389 0 0 1 47.480209,91.196603 18.013796,18.01389 0 0 1 65.494003,73.182717 18.013796,18.01389 0 0 1 83.507799,91.196603 Z"
             transform="translate(29.1483,-18.7308)" />
          <path
             id="path4466"
             style="fill:#000000;stroke:none;stroke-width:0;stroke-miterlimit:4;stroke-dasharray:none"
             d="M 83.507799,91.196603 A 18.013796,18.01389 0 0 1 65.494003,109.21051 18.013796,18.01389 0 0 1 47.480209,91.196603 18.013796,18.01389 0 0 1 65.494003,73.182717 18.013796,18.01389 0 0 1 83.507799,91.196603 Z"
             transform="translate(34.653)" />
          <path
             id="path5713"
             style="fill:#000000;stroke:none;stroke-width:0;stroke-miterlimit:4;stroke-dasharray:none"
             d="M 83.507799,91.196603 A 18.013796,18.01389 0 0 1 65.494003,109.21051 18.013796,18.01389 0 0 1 47.480209,91.196603 18.013796,18.01389 0 0 1 65.494003,73.182717 18.013796,18.01389 0 0 1 83.507799,91.196603 Z"
             transform="translate(29.1478,18.7307)" />
          <path
             id="path3918"
             style="fill:#000000;stroke:none;stroke-width:0;stroke-miterlimit:4;stroke-dasharray:none"
             d="M 83.507799,91.196603 A 18.013796,18.01389 0 0 1 65.494003,109.21051 18.013796,18.01389 0 0 1 47.480209,91.196603 18.013796,18.01389 0 0 1 65.494003,73.182717 18.013796,18.01389 0 0 1 83.507799,91.196603 Z"
             transform="translate(14.3953,31.52)" />
          <path
             id="path6554"
             style="fill:#000000;stroke:none;stroke-width:0;stroke-miterlimit:4;stroke-dasharray:none"
             d="M 83.507799,91.196603 A 18.013796,18.01389 0 0 1 65.494003,109.21051 18.013796,18.01389 0 0 1 47.480209,91.196603 18.013796,18.01389 0 0 1 65.494003,73.182717 18.013796,18.01389 0 0 1 83.507799,91.196603 Z"
             transform="translate(-4.93015,34.2982)" />
          <path
             id="path3257"
             style="fill:#000000;stroke:none;stroke-width:0;stroke-miterlimit:4;stroke-dasharray:none"
             d="M 83.507799,91.196603 A 18.013796,18.01389 0 0 1 65.494003,109.21051 18.013796,18.01389 0 0 1 47.480209,91.196603 18.013796,18.01389 0 0 1 65.494003,73.182717 18.013796,18.01389 0 0 1 83.507799,91.196603 Z"
             transform="translate(-22.6849,26.184)" />
          <path
             id="path877"
             style="fill:#000000;stroke:none;stroke-width:0;stroke-miterlimit:4;stroke-dasharray:none"
             d="M 83.507799,91.196603 A 18.013796,18.01389 0 0 1 65.494003,109.21051 18.013796,18.01389 0 0 1 47.480209,91.196603 18.013796,18.01389 0 0 1 65.494003,73.182717 18.013796,18.01389 0 0 1 83.507799,91.196603 Z"
             transform="translate(-33.2485,9.76614)" />
          <path
             id="path5802"
             style="fill:#000000;stroke:none;stroke-width:0;stroke-miterlimit:4;stroke-dasharray:none"
             d="M 83.507799,91.196603 A 18.013796,18.01389 0 0 1 65.494003,109.21051 18.013796,18.01389 0 0 1 47.480209,91.196603 18.013796,18.01389 0 0 1 65.494003,73.182717 18.013796,18.01389 0 0 1 83.507799,91.196603 Z"
             transform="translate(-33.2443,-9.75878)" />
          <path
             id="path4882"
             style="fill:#000000;stroke:none;stroke-width:0;stroke-miterlimit:4;stroke-dasharray:none"
             d="M 83.507799,91.196603 A 18.013796,18.01389 0 0 1 65.494003,109.21051 18.013796,18.01389 0 0 1 47.480209,91.196603 18.013796,18.01389 0 0 1 65.494003,73.182717 18.013796,18.01389 0 0 1 83.507799,91.196603 Z"
             transform="translate(-22.687,-26.1812)" />
          <path
             id="path7137"
             style="fill:#000000;stroke:none;stroke-width:0;stroke-miterlimit:4;stroke-dasharray:none"
             d="M 83.507799,91.196603 A 18.013796,18.01389 0 0 1 65.494003,109.21051 18.013796,18.01389 0 0 1 47.480209,91.196603 18.013796,18.01389 0 0 1 65.494003,73.182717 18.013796,18.01389 0 0 1 83.507799,91.196603 Z"
             transform="translate(-4.92996,-34.2971)" />
          <path
             id="path6970"
             style="fill:#000000;stroke:none;stroke-width:0;stroke-miterlimit:4;stroke-dasharray:none"
             d="M 83.507799,91.196603 A 18.013796,18.01389 0 0 1 65.494003,109.21051 18.013796,18.01389 0 0 1 47.480209,91.196603 18.013796,18.01389 0 0 1 65.494003,73.182717 18.013796,18.01389 0 0 1 83.507799,91.196603 Z"
             transform="translate(14.3955,-31.5202)" />
          <path
             id="path1624"
             style="fill:#000000;stroke:none;stroke-width:0;stroke-miterlimit:4;stroke-dasharray:none"
             d="M 83.507799,91.196603 A 18.013796,18.01389 0 0 1 65.494003,109.21051 18.013796,18.01389 0 0 1 47.480209,91.196603 18.013796,18.01389 0 0 1 65.494003,73.182717 18.013796,18.01389 0 0 1 83.507799,91.196603 Z"
             transform="translate(29.1479,-18.7307)" />
          <path
             id="path9316"
             style="fill:#000000;stroke:none;stroke-width:0;stroke-miterlimit:4;stroke-dasharray:none"
             d="M 83.507799,91.196603 A 18.013796,18.01389 0 0 1 65.494003,109.21051 18.013796,18.01389 0 0 1 47.480209,91.196603 18.013796,18.01389 0 0 1 65.494003,73.182717 18.013796,18.01389 0 0 1 83.507799,91.196603 Z"
             transform="translate(34.653)" />
        </g>
      </g>
      <circle
         style="fill:#ffffff;stroke:none;stroke-width:0;stroke-miterlimit:4;stroke-dasharray:none"
         id="path2963"
         cx="50"
         cy="42"
         r="25" />
      <ellipse
         style="fill:#ffffff;stroke:none;stroke-width:0;stroke-linecap:round;stroke-linejoin:round;stroke-miterlimit:4;stroke-dasharray:none;stroke-opacity:1"
         id="path3084-5"
         cx="-12.909223"
         cy="44.440701"
         rx="14.347468"
         ry="6.8474674"
         transform="matrix(-0.96592583,0.25881905,0.25881905,0.96592583,0,0)" />
      <circle
         style="fill:#000000;stroke:none;stroke-width:0;stroke-miterlimit:4;stroke-dasharray:none"
         id="path2967"
         cx="32.5"
         cy="24.5"
         r="12.5" />
      <circle
         style="fill:#000000;stroke:none;stroke-width:0;stroke-miterlimit:4;stroke-dasharray:none"
         id="path2967-5"
         cx="50"
         cy="19.5"
         r="12.5" />
      <ellipse
         style="fill:#ffffff;stroke:none;stroke-width:0;stroke-linecap:round;stroke-linejoin:round;stroke-miterlimit:4;stroke-dasharray:none;stroke-opacity:1"
         id="path3084"
         cx="84.594139"
         cy="18.314753"
         rx="14.347468"
         ry="6.8474674"
         transform="rotate(15)" />
      <circle
         style="fill:#000000;stroke:none;stroke-width:0;stroke-miterlimit:4;stroke-dasharray:none"
         id="path2967-6"
         cx="67.5"
         cy="24.5"
         r="12.5" />
      <g
         id="g3082"
         style="stroke-width:2;stroke-miterlimit:4;stroke-dasharray:none"
         transform="matrix(0.80362898,0,0,0.80362898,68.243818,24.138049)">
        <rect
           style="fill:#000000;stroke:#000000;stroke-width:2;stroke-linecap:round;stroke-linejoin:round;stroke-miterlimit:4;stroke-dasharray:none;stroke-opacity:1"
           id="rect3037"
           width="0.013751259"
           height="6.0137515"
           x="22.694914"
           y="46.578667"
           transform="scale(-1,1)" />
        <rect
           style="fill:#000000;stroke:#000000;stroke-width:2;stroke-linecap:round;stroke-linejoin:round;stroke-miterlimit:4;stroke-dasharray:none;stroke-opacity:1"
           id="rect3037-0"
           width="0.013751259"
           height="6.0137515"
           x="-51.706394"
           y="-3.6230519"
           transform="matrix(0.5,-0.8660254,-0.8660254,-0.5,0,0)" />
        <rect
           style="fill:#000000;stroke:#000000;stroke-width:2;stroke-linecap:round;stroke-linejoin:round;stroke-miterlimit:4;stroke-dasharray:none;stroke-opacity:1"
           id="rect3037-04"
           width="0.013751259"
           height="6.0137515"
           x="28.990852"
           y="-42.943707"
           transform="matrix(0.5,0.8660254,0.8660254,-0.5,0,0)" />
      </g>
    </g>
    <circle
       id="path3031-7"
       style="fill:#000000;stroke:#000000;stroke-width:0.264583"
       cx="-164.88779"
       cy="6.9330935"
       r="0" />
    <circle
       id="path3033-9"
       style="fill:#000000;stroke:#000000;stroke-width:0.264583"
       cx="-164.62051"
       cy="32.590965"
       r="0" />
    <path
       id="path844-3"
       style="fill:#000000;stroke:none;stroke-width:0;stroke-miterlimit:4;stroke-dasharray:none"
       d="M 50.113098,2.4437481e-4 A 17.332692,17.332783 8.0390916 0 0 37.090637,6.0376018 17.332692,17.332783 8.0390916 0 0 34.653576,5.5120525 a 17.332692,17.332783 8.0390916 0 0 -19.5864,14.7386345 17.332692,17.332783 8.0390916 0 0 -0.0021,0.01602 17.332692,17.332783 8.0390916 0 0 -12.2716021,14.2043 17.332692,17.332783 8.0390916 0 0 1.4267868,9.691398 17.332692,17.332783 8.0390916 0 0 -4.04988182,8.9116 17.332692,17.332783 8.0390916 0 0 7.85171672,17.043921 17.332692,17.332783 8.0390916 0 0 -0.00413,0.02273 17.332692,17.332783 8.0390916 0 0 14.7386354,19.5864 17.332692,17.332783 8.0390916 0 0 2.488218,0.170016 17.332692,17.332783 8.0390916 0 0 13.337688,9.951847 17.332692,17.332783 8.0390916 0 0 11.851989,-2.618444 17.332692,17.332783 8.0390916 0 0 6.933427,2.573486 A 17.332692,17.332783 8.0390916 0 0 75.58902,89.774598 17.332692,17.332783 8.0390916 0 0 92.730609,74.865431 17.332692,17.332783 8.0390916 0 0 92.715105,69.910695 17.332692,17.332783 8.0390916 0 0 100.49551,57.760531 17.332692,17.332783 8.0390916 0 0 96.384132,43.930885 17.332692,17.332783 8.0390916 0 0 97.771644,39.174587 17.332692,17.332783 8.0390916 0 0 85.429244,20.101849 17.332692,17.332783 8.0390916 0 0 70.698877,5.4179918 17.332692,17.332783 8.0390916 0 0 63.324651,5.969896 17.332692,17.332783 8.0390916 0 0 52.660702,0.17076677 17.332692,17.332783 8.0390916 0 0 50.293406,2.3457481e-4 a 17.332692,17.332783 8.0390916 0 0 -0.18035,0 z" />
    <path
       id="path2963-2"
       style="fill:#ffffff;stroke:none;stroke-width:0;stroke-miterlimit:4;stroke-dasharray:none"
       d="M 212.72266 114.47852 A 46.935231 46.935231 0 0 1 188.46484 121.23438 A 46.935231 46.935231 0 0 1 164.45117 114.625 A 46.935231 46.935231 0 0 1 122.75391 140.00781 A 46.935231 46.935231 0 0 1 87.474609 124.02539 A 25.710999 53.872139 75 0 0 84.078125 124.87891 A 25.710999 53.872139 75 0 0 38.697266 163.6582 A 25.710999 53.872139 75 0 0 95.992188 174.91406 A 93.870467 93.870467 0 0 0 187.68359 252.64844 A 3.0376437 3.0376437 0 0 1 187.17773 250.97266 L 187.17773 234.50781 L 172.85742 226.24023 A 3.0376437 3.0376437 0 0 1 171.7832 222.02539 L 171.80469 221.99023 A 3.0376437 3.0376437 0 0 1 174.375 220.53711 A 3.0376437 3.0376437 0 0 1 175.91602 220.94336 L 190.23633 229.21094 L 204.55664 220.94336 A 3.0376437 3.0376437 0 0 1 208.73242 222.10156 L 208.75195 222.13672 A 3.0376437 3.0376437 0 0 1 207.61523 226.24023 L 193.29492 234.50781 L 193.29492 250.97266 A 3.0376437 3.0376437 0 0 1 192.85156 252.54883 A 93.870467 93.870467 0 0 0 281.09375 173.99805 A 53.872139 25.710999 15 0 0 283.08203 174.55078 A 53.872139 25.710999 15 0 0 341.77344 163.6582 A 53.872139 25.710999 15 0 0 296.39062 124.87891 A 53.872139 25.710999 15 0 0 290.37891 123.44531 A 47.244094 47.244094 0 0 1 254.59375 139.84375 A 47.244094 47.244094 0 0 1 212.72266 114.47852 z "
       transform="scale(0.26458333)" />
  </g>
</svg>
